<svg width="10" height="22" viewBox="0 0 10 22" fill="none" xmlns="http://www.w3.org/2000/svg">
<path d="M0.5 4.70405C0.5 3.40833 0.938806 2.30039 1.81642 1.38023C2.69403 0.460077 3.75075 0 4.98657 0C6.22239 0 7.2791 0.460077 8.15672 1.38023C9.03433 2.30039 9.48209 3.40833 9.5 4.70405C9.5 4.85428 9.48209 4.98573 9.44627 5.09841L7.96866 11.2109C7.91493 12.0371 7.60149 12.7319 7.02836 13.2953C6.45522 13.8586 5.77463 14.1403 4.98657 14.1403C4.21642 14.1403 3.54478 13.868 2.97164 13.3235C2.39851 12.7789 2.07612 12.1028 2.00448 11.2954C1.82537 10.732 1.63731 10.1123 1.4403 9.43627C1.24328 8.76024 1.03731 7.94337 0.822388 6.98566C0.607463 6.02795 0.5 5.26741 0.5 4.70405ZM1.97761 18.8444C1.97761 17.9806 2.27313 17.2482 2.86418 16.6473C3.45522 16.0464 4.16269 15.7365 4.98657 15.7177C5.81045 15.699 6.51791 16.0088 7.10896 16.6473C7.7 17.2858 7.99552 18.0181 7.99552 18.8444C7.99552 19.727 7.7 20.4687 7.10896 21.0697C6.51791 21.6706 5.81045 21.9804 4.98657 21.9992C4.16269 22.018 3.45522 21.7081 2.86418 21.0697C2.27313 20.4312 1.97761 19.6894 1.97761 18.8444Z" fill="black" fill-opacity="0.7"/>
</svg>
