<svg width="20" height="20" viewBox="0 0 20 20" fill="none" xmlns="http://www.w3.org/2000/svg">
<g clip-path="url(#clip0_103_51)">
<path d="M7.83181 11.182C7.83181 9.92176 8.85354 8.90002 10.1138 8.90002C11.3741 8.90002 12.3958 9.92176 12.3958 11.182C12.3958 12.4423 11.3741 13.464 10.1138 13.464C8.85354 13.464 7.83181 12.4423 7.83181 11.182Z" fill="black" fill-opacity="0.7"/>
<path fill-rule="evenodd" clip-rule="evenodd" d="M2 16.9574V2.75824C2 3.31838 2.45409 3.77247 3.01423 3.77247H15.185C16.8654 3.77247 18.2276 5.13472 18.2276 6.81515V16.9574C18.2276 18.6379 16.8654 20.0001 15.185 20.0001H5.04268C3.36226 20.0001 2 18.6379 2 16.9574ZM6.31047 11.1821C6.31047 9.0815 8.01329 7.37872 10.1138 7.37872C12.2144 7.37872 13.9172 9.0815 13.9172 11.1821C13.9172 13.2826 12.2144 14.9854 10.1138 14.9854C8.01329 14.9854 6.31047 13.2826 6.31047 11.1821ZM7.3247 17.2674C7.3247 16.8473 7.66526 16.5068 8.08537 16.5068H12.1423C12.5624 16.5068 12.9029 16.8473 12.9029 17.2674C12.9029 17.6875 12.5624 18.0281 12.1423 18.0281H8.08537C7.66526 18.0281 7.3247 17.6875 7.3247 17.2674Z" fill="black" fill-opacity="0.7"/>
<path opacity="0.5" d="M16.1992 2.05435V3.94554C15.8819 3.83342 15.5405 3.77241 15.185 3.77241H3.01423C2.45409 3.77241 2 3.31832 2 2.75819V2.68612C2 2.14552 2.39751 1.68719 2.93267 1.61074L13.8839 0.0462821C15.1059 -0.128297 16.1992 0.819935 16.1992 2.05435Z" fill="black" fill-opacity="0.7"/>
</g>
<defs>
<clipPath id="clip0_103_51">
<rect width="20" height="20" fill="white"/>
</clipPath>
</defs>
</svg>
