<svg width="22" height="22" viewBox="0 0 22 22" fill="none" xmlns="http://www.w3.org/2000/svg">
<path d="M15.6945 19.3612C16.5 18.5557 16.5 17.2594 16.5 14.6667V11.6045C15.1464 11.1447 13.3301 10.7706 11 10.7706C8.66994 10.7706 6.85361 11.1447 5.5 11.6045V14.6667C5.5 17.2594 5.5 18.5557 6.30546 19.3612C7.11091 20.1667 8.40727 20.1667 11 20.1667C13.5927 20.1667 14.889 20.1667 15.6945 19.3612Z" fill="black" fill-opacity="0.7"/>
<path d="M14.6667 5.5H7.33333C4.74061 5.5 3.44425 5.5 2.63879 6.30546C1.83333 7.11091 1.83333 8.40727 1.83333 11C1.83333 13.5927 1.83333 14.889 2.63879 15.6945C3.09013 16.1459 3.69561 16.3443 4.59694 16.4315C4.5833 15.919 4.58332 15.3524 4.58333 14.7314V11.9555C4.52315 11.9814 4.46423 12.0072 4.4066 12.0332C4.06022 12.1886 3.65334 12.0339 3.49782 11.6876C3.3423 11.3412 3.49702 10.9343 3.8434 10.7788C5.42167 10.0701 7.77379 9.39565 11 9.39565C14.2262 9.39565 16.5783 10.0701 18.1566 10.7788C18.503 10.9343 18.6577 11.3412 18.5022 11.6876C18.3466 12.0339 17.9398 12.1886 17.5934 12.0332C17.5357 12.0072 17.4769 11.9814 17.4167 11.9555V14.7314C17.4167 15.3523 17.4167 15.919 17.4031 16.4315C18.3044 16.3443 18.9099 16.1459 19.3612 15.6945C20.1667 14.889 20.1667 13.5927 20.1667 11C20.1667 8.40727 20.1667 7.11091 19.3612 6.30546C18.5557 5.5 17.2594 5.5 14.6667 5.5Z" fill="black" fill-opacity="0.7"/>
<path d="M15.6942 2.63878C14.8887 1.83333 13.5923 1.83333 10.9995 1.83333C8.40686 1.83333 7.1105 1.83333 6.30504 2.63878C5.85371 3.09012 5.65527 3.6956 5.56804 4.59693C6.08067 4.58329 6.64731 4.58331 7.26844 4.58333H14.7312C15.3521 4.58331 15.9186 4.58329 16.4312 4.59692C16.3439 3.69559 16.1454 3.09012 15.6942 2.63878Z" fill="black" fill-opacity="0.7"/>
</svg>
