<svg width="20" height="20" viewBox="0 0 20 20" fill="none" xmlns="http://www.w3.org/2000/svg">
<path fill-rule="evenodd" clip-rule="evenodd" d="M1.66666 10C1.66666 6.07163 1.66666 4.10745 2.88705 2.88706C4.10743 1.66667 6.07161 1.66667 9.99999 1.66667C13.9283 1.66667 15.8926 1.66667 17.1129 2.88706C18.3333 4.10745 18.3333 6.07163 18.3333 10C18.3333 13.9283 18.3333 15.8926 17.1129 17.1129C15.8926 18.3333 13.9283 18.3333 9.99999 18.3333C6.07161 18.3333 4.10743 18.3333 2.88705 17.1129C1.66666 15.8926 1.66666 13.9283 1.66666 10ZM8.33666 4.79309C8.68182 4.79125 8.96016 4.50995 8.95832 4.16478C8.95649 3.81961 8.67516 3.54127 8.33001 3.54311C7.42855 3.54788 6.67985 3.56846 6.06883 3.67535C5.44228 3.78496 4.90654 3.99371 4.46786 4.4115C4.08861 4.77268 3.83491 5.13847 3.69687 5.66397C3.57176 6.14028 3.54946 6.72629 3.54358 7.49522C3.54094 7.84039 3.81861 8.12235 4.16377 8.12499C4.50894 8.12763 4.7909 7.84996 4.79354 7.50479C4.79959 6.71415 4.82669 6.28294 4.90586 5.98155C4.97211 5.72935 5.07761 5.55697 5.32992 5.31667C5.53156 5.12463 5.80677 4.99018 6.28423 4.90666C6.77722 4.82041 7.42558 4.79791 8.33666 4.79309ZM11.6701 3.54311C11.3249 3.54127 11.0436 3.8196 11.0417 4.16478C11.0399 4.50995 11.3182 4.79125 11.6634 4.79309C12.5745 4.79792 13.2228 4.82041 13.7157 4.90666C14.1932 4.99019 14.4684 5.12464 14.6701 5.31666C14.9224 5.55696 15.0279 5.72935 15.0942 5.98155C15.1733 6.28294 15.2004 6.71415 15.2064 7.50479C15.2091 7.84996 15.4911 8.12763 15.8362 8.12499C16.1814 8.12235 16.4591 7.84039 16.4564 7.49522C16.4505 6.72629 16.4282 6.14028 16.3031 5.66397C16.1651 5.13847 15.9114 4.77268 15.5322 4.4115C15.0934 3.99371 14.5577 3.78497 13.9312 3.67536C13.3202 3.56847 12.5715 3.54789 11.6701 3.54311ZM4.16666 9.37509C3.82148 9.37509 3.54166 9.65484 3.54166 10.0001C3.54166 10.3453 3.82148 10.6251 4.16666 10.6251H15.8333C16.1785 10.6251 16.4583 10.3453 16.4583 10.0001C16.4583 9.65484 16.1785 9.37509 15.8333 9.37509H4.16666ZM4.79354 12.4953C4.7909 12.1502 4.50894 11.8725 4.16377 11.8751C3.81861 11.8778 3.54094 12.1597 3.54358 12.5048C3.54946 13.2738 3.57176 13.8598 3.69687 14.3362C3.83491 14.8616 4.08861 15.2274 4.46786 15.5886C4.90653 16.0064 5.44226 16.2151 6.06881 16.3248C6.67981 16.4317 7.4285 16.4523 8.32993 16.457C8.67507 16.4588 8.95641 16.1805 8.95824 15.8353C8.96007 15.4902 8.68174 15.2088 8.33657 15.207C7.42553 15.2022 6.77719 15.1797 6.28421 15.0934C5.80677 15.0099 5.53156 14.8755 5.32992 14.6834C5.07761 14.4432 4.97211 14.2708 4.90586 14.0186C4.82669 13.7172 4.79959 13.2859 4.79354 12.4953ZM16.4564 12.5048C16.4591 12.1597 16.1814 11.8778 15.8362 11.8751C15.4911 11.8725 15.2091 12.1502 15.2064 12.4953C15.2004 13.2859 15.1733 13.7172 15.0942 14.0186C15.0279 14.2708 14.9224 14.4432 14.6701 14.6834C14.4684 14.8755 14.1932 15.0099 13.7157 15.0934C13.2228 15.1797 12.5745 15.2022 11.6634 15.207C11.3182 15.2088 11.0399 15.4902 11.0417 15.8353C11.0436 16.1805 11.3249 16.4588 11.6701 16.457C12.5715 16.4523 13.3202 16.4317 13.9312 16.3248C14.5577 16.2151 15.0934 16.0064 15.5322 15.5886C15.9114 15.2274 16.1651 14.8616 16.3031 14.3362C16.4282 13.8598 16.4505 13.2738 16.4564 12.5048Z" fill="black" fill-opacity="0.7"/>
</svg>
