<svg width="20" height="20" viewBox="0 0 20 20" fill="none" xmlns="http://www.w3.org/2000/svg">
<path fill-rule="evenodd" clip-rule="evenodd" d="M1.5155 13.7248C1.78702 13.7062 2.13391 13.7059 2.63158 13.7059H17.3684C17.8661 13.7059 18.213 13.7062 18.4845 13.7248C18.7513 13.7431 18.9067 13.7774 19.0253 13.8268C19.4122 13.988 19.7196 14.2972 19.8798 14.6863C19.9289 14.8056 19.963 14.9619 19.9812 15.2303C19.9997 15.5034 20 15.8523 20 16.3529C20 16.8535 19.9997 17.2025 19.9812 17.4756C19.963 17.744 19.9289 17.9002 19.8798 18.0196C19.7196 18.4087 19.4122 18.7179 19.0253 18.8791C18.9067 18.9285 18.7513 18.9628 18.4845 18.9811C18.213 18.9997 17.8661 19 17.3684 19H2.63158C2.13391 19 1.78702 18.9997 1.5155 18.9811C1.2487 18.9628 1.09333 18.9285 0.97471 18.8791C0.58782 18.7179 0.28044 18.4087 0.12019 18.0196C0.0710499 17.9002 0.03701 17.744 0.01881 17.4756C0.000280034 17.2025 0 16.8535 0 16.3529C0 15.8523 0.000280034 15.5034 0.01881 15.2303C0.03701 14.9619 0.0710499 14.8056 0.12019 14.6863C0.28044 14.2972 0.58782 13.988 0.97471 13.8268C1.09333 13.7774 1.2487 13.7431 1.5155 13.7248ZM2.63158 17.4118C3.21293 17.4118 3.68421 16.9377 3.68421 16.3529C3.68421 15.7682 3.21293 15.2941 2.63158 15.2941C2.05023 15.2941 1.57895 15.7682 1.57895 16.3529C1.57895 16.9377 2.05023 17.4118 2.63158 17.4118Z" fill="black" fill-opacity="0.7"/>
<path fill-rule="evenodd" clip-rule="evenodd" d="M2.63158 6.29412C2.13391 6.29412 1.78702 6.29383 1.5155 6.2752C1.2487 6.25689 1.09333 6.22265 0.97471 6.17322C0.58782 6.01202 0.28044 5.70284 0.12019 5.31367C0.0710499 5.19435 0.03701 5.03807 0.01881 4.7697C0.000280034 4.49658 0 4.14765 0 3.64706C0 3.14647 0.000280034 2.79753 0.01881 2.52441C0.03701 2.25605 0.0710499 2.09977 0.12019 1.98044C0.28044 1.59128 0.58782 1.28209 0.97471 1.1209C1.09333 1.07147 1.2487 1.03723 1.5155 1.01892C1.78702 1.00029 2.13391 1 2.63158 1H17.3684C17.8661 1 18.213 1.00029 18.4845 1.01892C18.7513 1.03723 18.9067 1.07147 19.0253 1.1209C19.4122 1.28209 19.7196 1.59128 19.8798 1.98044C19.9289 2.09977 19.963 2.25605 19.9812 2.52441C19.9997 2.79753 20 3.14647 20 3.64706C20 4.14765 19.9997 4.49658 19.9812 4.7697C19.963 5.03807 19.9289 5.19435 19.8798 5.31367C19.7196 5.70284 19.4122 6.01202 19.0253 6.17322C18.9067 6.22265 18.7513 6.25689 18.4845 6.2752C18.213 6.29383 17.8661 6.29412 17.3684 6.29412H2.63158ZM2.63158 7.35294C2.13391 7.35294 1.78702 7.35323 1.5155 7.37186C1.2487 7.39017 1.09333 7.42441 0.97471 7.47384C0.58782 7.63503 0.28044 7.94422 0.12019 8.3334C0.0710499 8.4527 0.03701 8.609 0.01881 8.8774C0.000280034 9.1505 0 9.4994 0 10C0 10.5006 0.000280034 10.8495 0.01881 11.1226C0.03701 11.391 0.0710499 11.5473 0.12019 11.6666C0.28044 12.0558 0.58782 12.365 0.97471 12.5262C1.09333 12.5756 1.2487 12.6098 1.5155 12.6281C1.78702 12.6468 2.13391 12.6471 2.63158 12.6471H17.3684C17.8661 12.6471 18.213 12.6468 18.4845 12.6281C18.7513 12.6098 18.9067 12.5756 19.0253 12.5262C19.4122 12.365 19.7196 12.0558 19.8798 11.6666C19.9289 11.5473 19.963 11.391 19.9812 11.1226C19.9997 10.8495 20 10.5006 20 10C20 9.4994 19.9997 9.1505 19.9812 8.8774C19.963 8.609 19.9289 8.4527 19.8798 8.3334C19.7196 7.94422 19.4122 7.63503 19.0253 7.47384C18.9067 7.42441 18.7513 7.39017 18.4845 7.37186C18.213 7.35323 17.8661 7.35294 17.3684 7.35294H2.63158ZM3.68421 10C3.68421 10.5848 3.21293 11.0588 2.63158 11.0588C2.05023 11.0588 1.57895 10.5848 1.57895 10C1.57895 9.4152 2.05023 8.9412 2.63158 8.9412C3.21293 8.9412 3.68421 9.4152 3.68421 10ZM2.63158 4.70588C3.21293 4.70588 3.68421 4.23183 3.68421 3.64706C3.68421 3.06229 3.21293 2.58824 2.63158 2.58824C2.05023 2.58824 1.57895 3.06229 1.57895 3.64706C1.57895 4.23183 2.05023 4.70588 2.63158 4.70588Z" fill="black" fill-opacity="0.7"/>
</svg>
